<?xml version="1.0" encoding="utf-8"?>
<!-- Generator: Adobe Illustrator 22.1.0, SVG Export Plug-In . SVG Version: 6.00 Build 0)  -->
<svg version="1.1" id="Layer_1" xmlns="http://www.w3.org/2000/svg" xmlns:xlink="http://www.w3.org/1999/xlink" x="0px" y="0px"
	 viewBox="0 0 961.7 215.5" style="enable-background:new 0 0 961.7 215.5;" xml:space="preserve">
<style type="text/css">
	.st0{display:none;fill:#FFFFFF;}
	.st1{fill:#808080;}
	.st2{display:none;}
	.st3{fill:#FFFFFF;}
	.st4{fill:#CCCCCC;}
	.st5{display:inline;}
	.st6{fill:#333333;}
	.st7{fill:#A10142;}
	.st8{fill:#0071BC;}
</style>
<path class="st0" d="M2.6-0.9C0.9-2.2-1.1-3.4-3.1-4.2c-1,0.6-2.1,1.2-3.1,1.8c2,0.9,3.9,2.1,5.6,3.4C0.4,0.3,1.5-0.3,2.6-0.9z"/>
<g>
	<g>
		<path d="M110.2,171.5c-17,0-66.3,0-66.3,0s-7.7-30.8-3-30.8s7.2,1.4,3-5.1s91,0,91,0S145.6,171.5,110.2,171.5z"/>
		<g>
			<path class="st1" d="M43.9,143.9c2.6-0.4,7.3,1,7.3,1l0,0c10.9,11.5,26.3,18.6,43.3,18.6c16.4,0,31.3-6.6,42.1-17.4
				c5.4,2.8-5.3,20.9-21.7,20.9c-7.6,0-59.4,0-64.2,0C42.9,167.1,41.3,144.4,43.9,143.9z"/>
		</g>
		<path d="M37.5,150.1c-0.5-2-0.3-7,0-8.3c0.3-1.3-5.3,2.3-5.3,3.1S38,152.1,37.5,150.1z"/>
		<path d="M39.2,160.4c-0.7-1.7-1.2-6.3-1.1-7.6c0.1-1.2-4.5,2.8-4.4,3.5C33.8,157.1,39.9,162.2,39.2,160.4z"/>
		<path d="M40.9,169.7c-0.8-1.5-1.8-5.7-1.9-6.9c-0.1-1.2-3.9,3.1-3.7,3.8S41.7,171.2,40.9,169.7z"/>
		<path d="M77.9,171.5c17,0,66.3,0,66.3,0s7.7-30.8,3-30.8c-4.7,0-7.2,1.4-3-5.1c4.3-6.5-101.3,0-101.3,0S42.5,171.5,77.9,171.5z"/>
		<path class="st2" d="M153.1,107.4c-0.7,25.8,0.7,20.9,8.8,18.1c20.3-7.2,20.5,19.6,14.6,32c-6.6,14-29.2,19.9-35.7,2.4
			c-4.7-12.8-7.8-9.2-17.3-4.8S153.1,107.4,153.1,107.4z"/>
		<g>
			<circle cx="93.5" cy="103.8" r="59.7"/>
		</g>
		<g>
			<path class="st3" d="M144.2,143.9c-2.6-0.4-7.3,1-7.3,1l0,0c-10.9,11.5-26.3,18.6-43.3,18.6c-16.4,0-31.3-6.6-42.1-17.4
				c-5.4,2.8,5.3,20.9,21.7,20.9c7.6,0,55.7,0,60.5,0C141.4,167.1,146.8,144.4,144.2,143.9z"/>
		</g>
		<g>
			<path class="st4" d="M144.2,143.9c-2.6-0.4-7.3,1-7.3,1l0,0c-0.9,0.9-1.8,1.8-2.8,2.7c1.4-0.4,4.6-1.1,6.6-0.8
				c2,0.3-0.7,13.7-5.5,20C142.1,164.2,146.6,144.3,144.2,143.9z"/>
		</g>
		<g>
			<path class="st4" d="M50.4,151.4c10.5,9.3,24.4,15,39.6,15c15.3,0,29.2-5.7,39.7-15.2c-1.8,1.4-3.6,2.6-5.5,3.8
				c-0.2,0.1-0.4,0.2-0.6,0.4c-0.5,0.3-1,0.6-1.6,0.9c-0.2,0.1-0.5,0.3-0.7,0.4c-0.5,0.3-1.1,0.6-1.6,0.8c-0.2,0.1-0.4,0.2-0.7,0.3
				c-1,0.5-2,0.9-3,1.3c-0.3,0.1-0.7,0.3-1,0.4c-0.5,0.2-0.9,0.3-1.4,0.5c-0.4,0.1-0.8,0.3-1.2,0.4c-0.4,0.1-0.9,0.3-1.3,0.4
				c-0.5,0.1-0.9,0.3-1.4,0.4c-0.4,0.1-0.8,0.2-1.2,0.3c-0.7,0.2-1.4,0.3-2,0.5c-0.3,0.1-0.6,0.1-1,0.2c-0.8,0.2-1.5,0.3-2.3,0.4
				c-0.3,0.1-0.7,0.1-1,0.1c-0.6,0.1-1.2,0.2-1.9,0.2c-0.3,0-0.7,0.1-1,0.1c-0.7,0.1-1.3,0.1-2,0.2c-0.3,0-0.6,0-0.9,0.1
				c-1,0-1.9,0.1-2.9,0.1c-16.4,0-31.3-6.6-42.1-17.4C49.9,147,49.7,149,50.4,151.4z"/>
		</g>
		<path d="M116.8,56.7c0,0,11.8-14.3,20.4-8.4c8.7,5.9-0.9,23.4-0.9,23.4l-8.2,0.7l-13.5-12.2L116.8,56.7z"/>
		<path d="M50.2,72.9c0,0-9.5-15.9-1.1-22.1s21.8,8.7,21.8,8.7l-2.1,7.9L52.8,76L50.2,72.9z"/>
		<path class="st3" d="M50.2,72.9c0,0-1.7-2.9-3.1-6.8c-0.9,1.1-1.8,2.3-2.6,3.4c1.4,4.1,3.5,7.3,3.5,7.3l2.6,3.1l15.8-9l0.6-2.5
			L52.8,76L50.2,72.9z"/>
		<g>
			<path class="st3" d="M147.1,103.8c0,9.2-2.3,17.9-6.4,25.4c-5,9.2-12.5,16.7-21.7,21.7c-7.6,4.1-16.3,6.5-25.6,6.5
				c-29.6,0-53.6-24-53.6-53.6s24-53.6,53.6-53.6S147.1,74.2,147.1,103.8z"/>
		</g>
		<path class="st2" d="M33.9,107.3c0.7,25.8-8.5,24.8-16.8,22.2C1.9,124.9-10,167.2,25,167.2c15.2,0,15.6-6.8,21.1-11.5
			c4.3-3.7,7.8-5.1,17.3-0.7C72.9,159.5,33.9,107.3,33.9,107.3z"/>
		<g class="st2">
			<g class="st5">
				<path class="st6" d="M15,135.7c14.8,2.4,22-9.3,18.9-27.9c0.2,14-3.5,17-10.5,20.1c-4.8,2.2-8.7-2-17.1,1.7
					c-16.9,7.5-10.9,32.1,8.7,36.3C1.3,158.6,2,133.6,15,135.7z"/>
			</g>
		</g>
		<g>
			<path class="st4" d="M142.5,124.8c-4.9,9-12.3,16.5-21.3,21.4c-7.5,4.1-16.1,6.4-25.2,6.4c-29.2,0-52.8-23.7-52.8-52.8
				c0-12.2,4.2-23.5,11.2-32.5c-8.9,9.6-14.4,22.4-14.4,36.6c0,29.6,24,53.6,53.6,53.6c9.3,0,18-2.3,25.6-6.5
				c9.2-5,16.7-12.5,21.7-21.7c1.4-2.5,2.5-5.1,3.4-7.9C143.6,122.5,143.1,123.7,142.5,124.8z"/>
		</g>
		<g>
			<path class="st4" d="M99,115.2c0,0,2.6,6.6-0.9,11c-3.3,4.2,1.6,6.5,8.5,5.4c2.1-0.4-7.7,7.7-10,4.6s-3.6-8.2-2.3-11.7
				C95.7,120.9,99,115.2,99,115.2z"/>
		</g>
		<path class="st3" d="M118.9,49.7c-1.9,1.8-4.8,4.4-5.7,5.7c0.8,0.2,3.3,0.6,4.1,0.8c0.8-0.9,2.6-2.9,5-4.8
			C121.2,50.8,120.1,50.3,118.9,49.7z"/>
		<g>
			<path d="M133.4,112.1c-2.4,4.4-10.6,7.1-19.7,2.1c-9.1-5-15.6-14.5-12.6-21.4c3.3-7.6,14.8-6.7,23.9-1.7
				C134.1,96,137,105.5,133.4,112.1z"/>
			<path d="M51.9,111.1c2.1,4.5,10.1,7.7,19.5,3.3s16.5-13.5,13.9-20.6C82.6,86,71,86.2,61.6,90.6C52.2,95,48.7,104.2,51.9,111.1z"
				/>
			<path d="M94.4,127.2c-4,0.8-8.5-4.9-9.3-9c-0.8-4.1,1.8-8,5.9-8.8c4-0.8,7.9,1.9,8.7,5.9C100.5,119.4,98.4,126.4,94.4,127.2z"/>
			<path d="M100.2,132.1l-4.9,1l-5.4-1c0,0,1.8,0.2,2.7-1.1c1-1.3-1-7.5-1-7.5l2.9-0.6c0,0,1.8,6.6,2.4,7.7
				C97.7,131.8,100.2,132.1,100.2,132.1z"/>
			<path d="M115.7,131.8c0.4,5.2-12.6,12-21.7,12.1s-15.9-5.7-16.1-8.4c-0.4-5.4,9.1-3.1,18.2-3.2
				C105.2,132.3,115.4,129.1,115.7,131.8z"/>
			<path class="st7" d="M114.5,131.8c0.6,0.5-0.2,3.4-6.6,6.9c-9.5,5.2-12.1-1.3-11.4-2.5c0.7-1.3,3.4-0.4,7.4-1.7
				C106.8,133.6,113.6,130.9,114.5,131.8z"/>
			<path class="st3" d="M114.6,102.4c0,0.9-1.4-0.2-3.2-0.2c-1.8,0-3.2,1.1-3.2,0.2c0-0.9,1.4-3.5,3.2-3.5
				C113.2,98.9,114.6,101.5,114.6,102.4z"/>
			<path class="st3" d="M77.9,102.4c0,0.9-1.4-0.2-3.2-0.2c-1.8,0-3.2,1.1-3.2,0.2c0-0.9,1.4-3.5,3.2-3.5
				C76.4,98.9,77.9,101.5,77.9,102.4z"/>
			<g>
				<path class="st4" d="M105.2,107.3c0,0,12.6,12.4,22.6,10.3c3.6-0.8,3.5,3.1-0.9,3.6c-4.4,0.5-11.9-3.9-15.6-6.8
					C107.7,111.7,105.2,107.3,105.2,107.3z"/>
			</g>
			<g>
				<path class="st4" d="M80.5,108c0,0-13.4,11.6-23.2,8.9c-3.6-1-3.7,2.9,0.7,3.7c4.4,0.8,12.1-3.2,16-5.8
					C77.7,112.3,80.5,108,80.5,108z"/>
			</g>
		</g>
		<g class="st2">
			<g class="st5">
				<path class="st6" d="M163.3,133.1c-14,5.1-13.2-6.7-10.1-25.4c-0.2,14-1.5,21.3,5.1,17.5c5-2.8,10.3-4.8,18.7-0.9
					c13.6,6.3,9.1,34-10.4,43.4C180.6,155.5,182.7,126,163.3,133.1z"/>
			</g>
		</g>
		<path d="M150.5,150.1c0.5-2,0.3-7,0-8.3c-0.3-1.3,5.3,2.3,5.3,3.1S150.1,152.1,150.5,150.1z"/>
		<path d="M148.9,160.4c0.7-1.7,1.2-6.3,1.1-7.6c-0.1-1.2,4.5,2.8,4.4,3.5C154.3,157.1,148.2,162.2,148.9,160.4z"/>
		<path d="M147.2,169.7c0.8-1.5,1.8-5.7,1.9-6.9c0.1-1.2,3.9,3.1,3.7,3.8S146.4,171.2,147.2,169.7z"/>
	</g>
</g>
<g>
	<path class="st8" d="M182.5,76.5h49.6v12.3h-49.6V76.5z M200.9,82h12.7v62.1h-12.7V82z"/>
	<path class="st8" d="M249.1,76.4h12.7v67.7h-12.7V76.4z M254.2,104.6h23.5c1.3,0,2.4-0.3,3.4-1c1-0.7,1.8-1.6,2.3-2.8
		c0.5-1.2,0.8-2.6,0.9-4.2c0-1.6-0.3-3-0.8-4.2c-0.5-1.2-1.3-2.1-2.3-2.8c-1-0.7-2.2-1-3.5-1h-23.5V76.4h24.6c3.7,0,7,0.8,9.8,2.5
		s5,4,6.6,7.1c1.6,3.1,2.3,6.6,2.3,10.6c0,4-0.8,7.6-2.3,10.6s-3.7,5.4-6.6,7.1c-2.8,1.7-6.1,2.5-9.8,2.5h-24.6V104.6z M268.4,114.8
		l13.6-2.1l18.2,31.4h-15.4L268.4,114.8z"/>
	<path class="st8" d="M340.1,76.5h8.1l25.9,67.6h-13.7l-16.2-46.2L328,144.1h-13.7L340.1,76.5z M326.7,121h35.6v12.3h-35.6V121z"/>
	<path class="st8" d="M381.8,76.5h13.1l14.4,45.1l14.4-45.1h13.1l-22.5,67.6h-10L381.8,76.5z"/>
	<path class="st8" d="M456.1,76.5h12.7v67.6h-12.7V76.5z M460.7,76.5h40.7v12.3h-40.7V76.5z M460.7,104.4h35.6v12.3h-35.6V104.4z
		 M460.7,131.8h40.7v12.3h-40.7V131.8z"/>
	<path class="st8" d="M524.5,76.5h12.7v67.6h-12.7V76.5z M530.2,131.8h39.6v12.3h-39.6V131.8z"/>
</g>
<g>
	<path d="M591.3,76.5H604v67.6h-12.7V76.5z M597.1,105.6h21.6c1.5,0,2.9-0.3,4-1c1.2-0.7,2.1-1.7,2.7-3c0.7-1.3,1-2.7,1-4.4
		c0-1.7-0.3-3.2-1-4.4c-0.6-1.3-1.5-2.3-2.7-3s-2.5-1-4.1-1h-21.6V76.5h21.3c4.2,0,7.9,0.9,11.1,2.6s5.7,4.1,7.5,7.3
		c1.8,3.1,2.7,6.8,2.7,10.9c0,4.1-0.9,7.7-2.7,10.9s-4.3,5.5-7.5,7.2s-6.9,2.6-11.1,2.6h-21.3V105.6z"/>
	<path d="M677.2,76.5h8.1l25.9,67.6h-13.7l-16.2-46.2L665,144.1h-13.7L677.2,76.5z M663.7,121h35.6v12.3h-35.6V121z"/>
	<path d="M730.9,76.5h15.6l25.2,51.8l-1.1,1.2v-53h12.2v67.6h-15.7L742,93l1.1-1.2v52.2h-12.2V76.5z"/>
	<path d="M809.1,76.5h12.7v67.6h-12.7V76.5z M815.5,131.8h16.2c4.2,0,7.4-1,9.7-3c2.3-2,3.4-4.9,3.4-8.6v-19.9
		c0-3.7-1.1-6.5-3.4-8.6s-5.5-3-9.7-3h-16.2V76.5h16c5.6,0,10.5,0.9,14.4,2.8c4,1.9,7,4.7,9.1,8.3c2.1,3.6,3.1,8,3.1,13.1v19.2
		c0,4.9-1,9.1-3,12.7c-2,3.6-5,6.5-9,8.5c-4,2-8.9,3-14.7,3h-15.9V131.8z"/>
	<path d="M901,76.5h8.1l25.9,67.6h-13.7l-16.2-46.2l-16.2,46.2h-13.7L901,76.5z M887.6,121h35.6v12.3h-35.6V121z"/>
</g>
</svg>
